<svg xmlns="http://www.w3.org/2000/svg" xmlns:xlink="http://www.w3.org/1999/xlink" width="50" zoomAndPan="magnify" viewBox="0 0 37.5 37.499999" height="50" preserveAspectRatio="xMidYMid meet" version="1.0"><defs><clipPath id="34afd6c665"><path d="M 1.085938 1.085938 L 36.335938 1.085938 L 36.335938 36.335938 L 1.085938 36.335938 Z M 1.085938 1.085938 " clip-rule="nonzero"/></clipPath><clipPath id="19a47a7b90"><path d="M 3 1.085938 L 36 1.085938 L 36 26 L 3 26 Z M 3 1.085938 " clip-rule="nonzero"/></clipPath><clipPath id="a790fb6428"><path d="M 31 8 L 36.335938 8 L 36.335938 34 L 31 34 Z M 31 8 " clip-rule="nonzero"/></clipPath></defs><g clip-path="url(#34afd6c665)"><path fill="#000000" d="M 35.75 35.164062 L 2.261719 35.164062 L 2.261719 1.675781 C 2.261719 1.511719 2.207031 1.375 2.089844 1.257812 C 1.976562 1.144531 1.835938 1.085938 1.675781 1.085938 C 1.511719 1.085938 1.375 1.144531 1.257812 1.257812 C 1.144531 1.375 1.085938 1.511719 1.085938 1.675781 L 1.085938 35.75 C 1.085938 35.914062 1.144531 36.050781 1.257812 36.164062 C 1.375 36.28125 1.511719 36.335938 1.675781 36.335938 L 35.75 36.335938 C 35.914062 36.335938 36.050781 36.28125 36.164062 36.164062 C 36.28125 36.050781 36.335938 35.914062 36.335938 35.75 C 36.335938 35.585938 36.28125 35.449219 36.164062 35.335938 C 36.050781 35.21875 35.914062 35.164062 35.75 35.164062 Z M 35.75 35.164062 " fill-opacity="1" fill-rule="nonzero"/></g><g clip-path="url(#19a47a7b90)"><path fill="#000000" d="M 3.730469 25.175781 L 8.226562 25.175781 C 20.273438 25.175781 30.417969 16.792969 33.195312 5.523438 C 33.230469 5.378906 33.324219 5.304688 33.476562 5.304688 L 35.007812 5.304688 C 35.140625 5.304688 35.234375 5.242188 35.28125 5.117188 C 35.332031 4.996094 35.308594 4.886719 35.210938 4.796875 L 31.464844 1.277344 C 31.40625 1.222656 31.339844 1.199219 31.261719 1.199219 C 31.183594 1.199219 31.117188 1.222656 31.0625 1.277344 L 27.316406 4.796875 C 27.21875 4.886719 27.195312 4.996094 27.242188 5.117188 C 27.292969 5.242188 27.382812 5.304688 27.519531 5.304688 L 28.773438 5.304688 C 28.871094 5.304688 28.949219 5.34375 29.011719 5.421875 C 29.070312 5.5 29.085938 5.589844 29.058594 5.683594 C 26.335938 14.957031 18.332031 21.5625 8.226562 21.5625 L 3.730469 21.5625 C 3.648438 21.5625 3.582031 21.589844 3.523438 21.648438 C 3.464844 21.707031 3.4375 21.773438 3.4375 21.855469 L 3.4375 24.882812 C 3.4375 24.960938 3.464844 25.03125 3.523438 25.089844 C 3.582031 25.144531 3.648438 25.175781 3.730469 25.175781 Z M 3.730469 25.175781 " fill-opacity="1" fill-rule="nonzero"/></g><path fill="#000000" d="M 4.023438 26.816406 L 7.550781 26.816406 C 7.710938 26.816406 7.851562 26.871094 7.964844 26.988281 C 8.082031 27.101562 8.136719 27.238281 8.136719 27.402344 L 8.136719 33.398438 C 8.136719 33.5625 8.082031 33.699219 7.964844 33.816406 C 7.851562 33.929688 7.710938 33.988281 7.550781 33.988281 L 4.023438 33.988281 C 3.863281 33.988281 3.722656 33.929688 3.609375 33.816406 C 3.496094 33.699219 3.4375 33.5625 3.4375 33.398438 L 3.4375 27.402344 C 3.4375 27.238281 3.496094 27.101562 3.609375 26.988281 C 3.722656 26.871094 3.863281 26.816406 4.023438 26.816406 Z M 4.023438 26.816406 " fill-opacity="1" fill-rule="nonzero"/><path fill="#000000" d="M 11.027344 26.730469 C 10.875 26.742188 10.746094 26.804688 10.640625 26.917969 C 10.539062 27.03125 10.488281 27.164062 10.488281 27.316406 L 10.488281 33.398438 C 10.488281 33.5625 10.542969 33.699219 10.660156 33.816406 C 10.773438 33.929688 10.914062 33.988281 11.074219 33.988281 L 14.601562 33.988281 C 14.761719 33.988281 14.902344 33.929688 15.015625 33.816406 C 15.128906 33.699219 15.1875 33.5625 15.1875 33.398438 L 15.1875 26.789062 C 15.1875 26.703125 15.167969 26.617188 15.128906 26.539062 C 15.089844 26.457031 15.035156 26.390625 14.96875 26.335938 C 14.898438 26.277344 14.820312 26.242188 14.734375 26.21875 C 14.648438 26.199219 14.5625 26.199219 14.472656 26.214844 C 13.335938 26.460938 12.1875 26.632812 11.027344 26.730469 Z M 11.027344 26.730469 " fill-opacity="1" fill-rule="nonzero"/><path fill="#000000" d="M 21.375 23.722656 C 20.265625 24.308594 19.117188 24.8125 17.929688 25.230469 C 17.667969 25.320312 17.539062 25.507812 17.539062 25.785156 L 17.539062 33.398438 C 17.539062 33.5625 17.59375 33.699219 17.710938 33.816406 C 17.824219 33.929688 17.960938 33.988281 18.125 33.988281 L 21.648438 33.988281 C 21.8125 33.988281 21.949219 33.929688 22.066406 33.816406 C 22.179688 33.699219 22.238281 33.5625 22.238281 33.398438 L 22.238281 24.242188 C 22.25 23.8125 21.75 23.511719 21.375 23.722656 Z M 21.375 23.722656 " fill-opacity="1" fill-rule="nonzero"/><path fill="#000000" d="M 28.273438 18.539062 C 27.214844 19.648438 26.0625 20.660156 24.828125 21.566406 C 24.667969 21.683594 24.585938 21.84375 24.585938 22.039062 L 24.585938 33.398438 C 24.585938 33.5625 24.644531 33.699219 24.757812 33.816406 C 24.875 33.929688 25.011719 33.988281 25.175781 33.988281 L 28.699219 33.988281 C 28.863281 33.988281 29 33.929688 29.117188 33.816406 C 29.230469 33.699219 29.289062 33.5625 29.289062 33.398438 L 29.289062 18.945312 C 29.304688 18.429688 28.617188 18.15625 28.273438 18.539062 Z M 28.273438 18.539062 " fill-opacity="1" fill-rule="nonzero"/><g clip-path="url(#a790fb6428)"><path fill="#000000" d="M 35.75 8.136719 L 35.089844 8.136719 C 34.804688 8.136719 34.617188 8.273438 34.53125 8.546875 C 33.855469 10.660156 32.921875 12.65625 31.730469 14.53125 C 31.671875 14.628906 31.640625 14.734375 31.640625 14.847656 L 31.640625 33.398438 C 31.640625 33.5625 31.699219 33.699219 31.8125 33.816406 C 31.925781 33.929688 32.066406 33.988281 32.226562 33.988281 L 35.753906 33.988281 C 35.914062 33.988281 36.054688 33.929688 36.167969 33.816406 C 36.28125 33.699219 36.339844 33.5625 36.339844 33.398438 L 36.339844 8.726562 C 36.339844 8.5625 36.28125 8.421875 36.167969 8.308594 C 36.050781 8.195312 35.914062 8.136719 35.75 8.136719 Z M 35.75 8.136719 " fill-opacity="1" fill-rule="nonzero"/></g></svg>