<svg xmlns="http://www.w3.org/2000/svg" xmlns:xlink="http://www.w3.org/1999/xlink" width="50" zoomAndPan="magnify" viewBox="0 0 37.5 37.499999" height="50" preserveAspectRatio="xMidYMid meet" version="1.0"><defs><clipPath id="2791363d75"><path d="M 1.613281 1.613281 L 36.113281 1.613281 L 36.113281 36.113281 L 1.613281 36.113281 Z M 1.613281 1.613281 " clip-rule="nonzero"/></clipPath></defs><g clip-path="url(#2791363d75)"><path fill="#000000" d="M 36.113281 8.535156 C 36.113281 4.71875 33.007812 1.613281 29.1875 1.613281 L 8.535156 1.613281 C 4.71875 1.613281 1.613281 4.71875 1.613281 8.535156 L 1.613281 29.1875 C 1.613281 33.007812 4.71875 36.113281 8.535156 36.113281 L 29.1875 36.113281 C 33.007812 36.113281 36.113281 33.007812 36.113281 29.1875 Z M 34.332031 29.1875 C 34.332031 32.027344 32.027344 34.332031 29.1875 34.332031 L 8.535156 34.332031 C 5.699219 34.332031 3.390625 32.027344 3.390625 29.1875 L 3.390625 8.535156 C 3.390625 5.699219 5.699219 3.390625 8.535156 3.390625 L 29.1875 3.390625 C 32.027344 3.390625 34.332031 5.699219 34.332031 8.535156 Z M 34.332031 29.1875 " fill-opacity="1" fill-rule="nonzero"/></g><path fill="#000000" d="M 27.214844 16.726562 C 27.214844 16.949219 27.136719 17.136719 26.980469 17.292969 C 26.824219 17.449219 26.632812 17.527344 26.414062 17.527344 C 26.191406 17.527344 26.003906 17.449219 25.847656 17.292969 C 25.691406 17.136719 25.613281 16.949219 25.613281 16.726562 C 25.613281 16.507812 25.691406 16.316406 25.847656 16.160156 C 26.003906 16.003906 26.191406 15.925781 26.414062 15.925781 C 26.632812 15.925781 26.824219 16.003906 26.980469 16.160156 C 27.136719 16.316406 27.214844 16.507812 27.214844 16.726562 Z M 27.214844 16.726562 " fill-opacity="1" fill-rule="nonzero"/><path fill="#000000" d="M 22.300781 17.28125 L 26.988281 12.597656 C 27.292969 12.292969 27.292969 11.796875 26.988281 11.496094 C 26.683594 11.191406 26.1875 11.191406 25.882812 11.496094 L 21.199219 16.179688 C 20.894531 16.484375 20.894531 16.980469 21.199219 17.28125 C 21.503906 17.585938 21.996094 17.585938 22.300781 17.28125 Z M 22.300781 17.28125 " fill-opacity="1" fill-rule="nonzero"/><path fill="#000000" d="M 16.578125 21.414062 C 16.273438 21.109375 15.78125 21.109375 15.476562 21.414062 L 13.683594 23.203125 L 11.894531 21.414062 C 11.589844 21.109375 11.09375 21.109375 10.789062 21.414062 C 10.484375 21.71875 10.484375 22.210938 10.789062 22.515625 L 12.582031 24.308594 L 10.789062 26.097656 C 10.484375 26.402344 10.484375 26.898438 10.789062 27.203125 C 11.09375 27.503906 11.589844 27.503906 11.894531 27.203125 L 13.683594 25.410156 L 15.476562 27.203125 C 15.78125 27.503906 16.273438 27.503906 16.578125 27.203125 C 16.882812 26.898438 16.882812 26.402344 16.578125 26.097656 L 14.785156 24.308594 L 16.578125 22.515625 C 16.882812 22.210938 16.882812 21.71875 16.578125 21.414062 Z M 16.578125 21.414062 " fill-opacity="1" fill-rule="nonzero"/><path fill="#000000" d="M 22.578125 12.050781 C 22.578125 12.269531 22.5 12.457031 22.34375 12.613281 C 22.1875 12.769531 22 12.847656 21.78125 12.847656 C 21.558594 12.847656 21.371094 12.769531 21.214844 12.613281 C 21.058594 12.457031 20.980469 12.269531 20.980469 12.050781 C 20.980469 11.828125 21.058594 11.640625 21.214844 11.484375 C 21.371094 11.328125 21.558594 11.25 21.78125 11.25 C 22 11.25 22.1875 11.328125 22.34375 11.484375 C 22.5 11.640625 22.578125 11.828125 22.578125 12.050781 Z M 22.578125 12.050781 " fill-opacity="1" fill-rule="nonzero"/><path fill="#000000" d="M 27.40625 23.527344 L 20.78125 23.527344 C 20.347656 23.527344 20 23.875 20 24.308594 C 20 24.738281 20.347656 25.085938 20.78125 25.085938 L 27.40625 25.085938 C 27.835938 25.085938 28.1875 24.738281 28.1875 24.308594 C 28.1875 23.875 27.835938 23.527344 27.40625 23.527344 Z M 27.40625 23.527344 " fill-opacity="1" fill-rule="nonzero"/><path fill="#000000" d="M 28.410156 2.03125 L 9.40625 2.03125 C 5.359375 2.03125 2.078125 5.3125 2.078125 9.359375 L 2.078125 28.363281 C 2.078125 32.410156 5.359375 35.691406 9.40625 35.691406 L 28.410156 35.691406 C 32.457031 35.691406 35.738281 32.410156 35.738281 28.363281 L 35.738281 9.359375 C 35.738281 5.3125 32.457031 2.03125 28.410156 2.03125 Z M 30.082031 26.34375 C 30.082031 28.394531 28.421875 30.054688 26.371094 30.054688 L 11.40625 30.054688 C 9.355469 30.054688 7.695312 28.394531 7.695312 26.34375 L 7.695312 11.378906 C 7.695312 9.332031 9.355469 7.667969 11.40625 7.667969 L 26.371094 7.667969 C 28.421875 7.667969 30.082031 9.332031 30.082031 11.378906 Z M 30.082031 26.34375 " fill-opacity="1" fill-rule="nonzero"/><path fill="#000000" d="M 16.996094 13.609375 L 14.464844 13.609375 L 14.464844 11.074219 C 14.464844 10.644531 14.113281 10.296875 13.683594 10.296875 C 13.253906 10.296875 12.90625 10.644531 12.90625 11.074219 L 12.90625 13.609375 L 10.371094 13.609375 C 9.941406 13.609375 9.589844 13.957031 9.589844 14.386719 C 9.589844 14.820312 9.941406 15.167969 10.371094 15.167969 L 12.90625 15.167969 L 12.90625 17.703125 C 12.90625 18.132812 13.253906 18.480469 13.683594 18.480469 C 14.113281 18.480469 14.464844 18.132812 14.464844 17.703125 L 14.464844 15.167969 L 16.996094 15.167969 C 17.429688 15.167969 17.777344 14.820312 17.777344 14.386719 C 17.777344 13.957031 17.429688 13.609375 16.996094 13.609375 Z M 16.996094 13.609375 " fill-opacity="1" fill-rule="nonzero"/></svg>