<svg xmlns="http://www.w3.org/2000/svg" xmlns:xlink="http://www.w3.org/1999/xlink" width="50" zoomAndPan="magnify" viewBox="0 0 37.5 37.499999" height="50" preserveAspectRatio="xMidYMid meet" version="1.0"><defs><clipPath id="9f867a651a"><path d="M 33.246094 17.449219 L 37.007812 17.449219 L 37.007812 25.953125 L 33.246094 25.953125 Z M 33.246094 17.449219 " clip-rule="nonzero"/></clipPath><clipPath id="48bc7c5e58"><path d="M 23 2.390625 L 27 2.390625 L 27 7 L 23 7 Z M 23 2.390625 " clip-rule="nonzero"/></clipPath><clipPath id="300968aad3"><path d="M 17 4.441406 L 19.125 4.441406 L 19.125 35.390625 L 17 35.390625 Z M 17 4.441406 " clip-rule="nonzero"/></clipPath><clipPath id="8162336683"><path d="M 13 2.390625 L 23 2.390625 L 23 7 L 13 7 Z M 13 2.390625 " clip-rule="nonzero"/></clipPath></defs><path fill="#000000" d="M 0.0273438 20.699219 L 36.0625 20.699219 L 36.0625 22.683594 L 0.0273438 22.683594 L 0.0273438 20.699219 " fill-opacity="1" fill-rule="nonzero"/><path fill="#000000" d="M 32.886719 27.671875 L 34.105469 27.671875 L 34.53125 28.421875 L 35.023438 27.671875 L 36.15625 27.671875 L 35.242188 28.957031 L 36.222656 30.371094 L 35.023438 30.371094 L 34.53125 29.5 L 33.945312 30.371094 L 32.835938 30.371094 L 33.808594 28.957031 L 32.886719 27.671875 " fill-opacity="1" fill-rule="nonzero"/><g clip-path="url(#9f867a651a)"><path fill="#000000" d="M 33.34375 25.859375 L 33.34375 17.523438 L 37.476562 21.691406 Z M 33.34375 25.859375 " fill-opacity="1" fill-rule="evenodd"/></g><g clip-path="url(#48bc7c5e58)"><path fill="#000000" d="M 23.328125 2.53125 L 24.410156 2.53125 L 24.964844 4.328125 L 25.476562 2.53125 L 26.488281 2.53125 L 25.425781 5.417969 C 25.304688 5.746094 25.183594 5.96875 25.054688 6.085938 C 24.878906 6.246094 24.605469 6.328125 24.242188 6.328125 C 24.09375 6.328125 23.863281 6.308594 23.554688 6.265625 L 23.472656 5.542969 C 23.621094 5.59375 23.785156 5.617188 23.96875 5.617188 C 24.089844 5.617188 24.1875 5.589844 24.261719 5.53125 C 24.335938 5.476562 24.402344 5.375 24.453125 5.230469 L 23.328125 2.53125 " fill-opacity="1" fill-rule="nonzero"/></g><g clip-path="url(#300968aad3)"><path fill="#000000" d="M 19.027344 4.476562 L 19.027344 35.390625 L 17.0625 35.390625 L 17.0625 4.476562 L 19.027344 4.476562 " fill-opacity="1" fill-rule="nonzero"/></g><g clip-path="url(#8162336683)"><path fill="#000000" d="M 22.179688 6.558594 L 13.910156 6.558594 L 18.046875 2.390625 Z M 22.179688 6.558594 " fill-opacity="1" fill-rule="evenodd"/></g><path fill="#000000" d="M 0.773438 12.46875 C 1.601562 10.789062 2.523438 10.390625 3.523438 10.890625 C 4.875 11.566406 5.78125 14.679688 6.769531 18.0625 C 7.902344 21.9375 9.15625 26.230469 10.355469 26.230469 C 11.558594 26.230469 12.8125 21.9375 13.941406 18.0625 C 14.574219 15.902344 15.171875 13.851562 15.875 12.476562 L 15.859375 12.46875 C 16.488281 11.195312 17.167969 10.65625 17.898438 10.691406 C 18.632812 10.65625 19.3125 11.195312 19.9375 12.46875 L 19.925781 12.476562 C 20.625 13.851562 21.226562 15.902344 21.855469 18.0625 C 22.988281 21.9375 24.242188 26.230469 25.441406 26.230469 C 26.644531 26.230469 27.898438 21.9375 29.03125 18.0625 C 30.015625 14.679688 30.925781 11.566406 32.273438 10.890625 C 33.277344 10.390625 34.199219 10.789062 35.027344 12.46875 L 33.265625 13.34375 C 33.058594 12.925781 33.25 12.613281 33.144531 12.667969 C 32.566406 12.957031 31.773438 15.667969 30.910156 18.621094 C 29.582031 23.175781 28.109375 28.214844 25.441406 28.214844 C 22.773438 28.214844 21.304688 23.175781 19.972656 18.621094 C 19.332031 16.421875 18.726562 14.351562 18.222656 13.320312 L 18.179688 13.34375 C 18.132812 13.246094 18.105469 13.15625 18.089844 13.074219 C 18.027344 12.960938 17.960938 12.867188 17.898438 12.796875 C 17.835938 12.867188 17.773438 12.960938 17.707031 13.074219 C 17.695312 13.15625 17.667969 13.246094 17.621094 13.34375 L 17.578125 13.320312 C 17.070312 14.351562 16.46875 16.421875 15.824219 18.621094 C 14.496094 23.175781 13.023438 28.214844 10.355469 28.214844 C 7.6875 28.214844 6.21875 23.175781 4.886719 18.621094 C 4.027344 15.667969 3.234375 12.957031 2.65625 12.667969 C 2.550781 12.613281 2.738281 12.925781 2.535156 13.34375 L 0.773438 12.46875 " fill-opacity="1" fill-rule="nonzero"/></svg>