<svg xmlns="http://www.w3.org/2000/svg" xmlns:xlink="http://www.w3.org/1999/xlink" width="50" zoomAndPan="magnify" viewBox="0 0 37.5 37.499999" height="50" preserveAspectRatio="xMidYMid meet" version="1.0"><defs><clipPath id="b2bedb6ee3"><path d="M 0.65625 1.699219 L 36.65625 1.699219 L 36.65625 35.449219 L 0.65625 35.449219 Z M 0.65625 1.699219 " clip-rule="nonzero"/></clipPath></defs><path fill="#000000" d="M 17.660156 7.445312 L 11.679688 17.808594 L 12.574219 18.339844 C 13.046875 18.621094 13.199219 19.230469 12.914062 19.699219 C 12.632812 20.164062 12.023438 20.320312 11.550781 20.039062 L 10.6875 19.523438 L 5.324219 28.820312 L 17.660156 21.949219 L 17.660156 7.445312 " fill-opacity="1" fill-rule="nonzero"/><path fill="#000000" d="M 6.480469 30.445312 L 17.660156 30.445312 L 17.660156 29.453125 C 17.660156 28.90625 18.105469 28.464844 18.652344 28.464844 C 19.203125 28.464844 19.648438 28.90625 19.648438 29.453125 L 19.648438 30.445312 L 30.824219 30.445312 L 18.652344 23.664062 L 6.480469 30.445312 " fill-opacity="1" fill-rule="nonzero"/><path fill="#000000" d="M 25.753906 20.039062 C 25.285156 20.320312 24.671875 20.167969 24.390625 19.699219 C 24.109375 19.230469 24.261719 18.621094 24.730469 18.34375 L 25.628906 17.808594 L 19.648438 7.445312 L 19.648438 21.949219 L 31.980469 28.820312 L 26.617188 19.523438 L 25.753906 20.039062 " fill-opacity="1" fill-rule="nonzero"/><g clip-path="url(#b2bedb6ee3)"><path fill="#000000" d="M 34.636719 32.421875 C 34.359375 32.421875 19.910156 32.421875 19.648438 32.421875 L 19.648438 33.410156 C 19.648438 33.957031 19.203125 34.402344 18.652344 34.402344 C 18.105469 34.402344 17.660156 33.957031 17.660156 33.410156 L 17.660156 32.421875 L 2.675781 32.421875 C 2.105469 32.421875 1.679688 31.96875 1.675781 31.441406 C 1.675781 31.265625 1.722656 31.089844 1.808594 30.941406 L 8.980469 18.503906 L 8.136719 18.003906 C 7.667969 17.722656 7.515625 17.113281 7.796875 16.644531 C 8.078125 16.175781 8.691406 16.023438 9.160156 16.304688 L 9.972656 16.789062 L 17.789062 3.238281 C 18.171875 2.578125 19.132812 2.578125 19.515625 3.238281 L 27.335938 16.789062 L 28.144531 16.304688 C 28.617188 16.023438 29.226562 16.175781 29.511719 16.644531 C 29.792969 17.113281 29.640625 17.722656 29.167969 18 L 28.324219 18.503906 L 35.5 30.941406 C 35.585938 31.089844 35.632812 31.265625 35.632812 31.4375 C 35.628906 31.972656 35.191406 32.421875 34.636719 32.421875 Z M 36.382812 30.4375 L 29.707031 18.863281 C 30.648438 18.292969 30.953125 17.066406 30.382812 16.125 C 30.023438 15.523438 29.359375 15.152344 28.65625 15.152344 C 28.324219 15.152344 27.996094 15.234375 27.703125 15.390625 L 20.398438 2.734375 C 20.035156 2.105469 19.382812 1.730469 18.652344 1.730469 C 17.921875 1.730469 17.269531 2.105469 16.90625 2.734375 L 9.605469 15.390625 C 9.3125 15.234375 8.984375 15.152344 8.652344 15.152344 C 7.945312 15.152344 7.285156 15.523438 6.925781 16.121094 C 6.355469 17.066406 6.660156 18.289062 7.601562 18.863281 L 0.921875 30.4375 C 0.746094 30.742188 0.65625 31.09375 0.65625 31.445312 C 0.664062 32.542969 1.570312 33.433594 2.675781 33.433594 L 16.640625 33.433594 C 16.652344 34.527344 17.550781 35.414062 18.652344 35.414062 C 19.753906 35.414062 20.652344 34.527344 20.667969 33.433594 L 34.636719 33.433594 C 35.742188 33.433594 36.644531 32.542969 36.648438 31.445312 C 36.652344 31.09375 36.558594 30.742188 36.382812 30.4375 " fill-opacity="1" fill-rule="nonzero"/></g></svg>