<svg xmlns="http://www.w3.org/2000/svg" xmlns:xlink="http://www.w3.org/1999/xlink" width="50" zoomAndPan="magnify" viewBox="0 0 37.5 37.499999" height="50" preserveAspectRatio="xMidYMid meet" version="1.0"><defs><clipPath id="f89c940a7c"><path d="M 1.789062 1.980469 L 35.539062 1.980469 L 35.539062 35.730469 L 1.789062 35.730469 Z M 1.789062 1.980469 " clip-rule="nonzero"/></clipPath></defs><path fill="#100f0d" d="M 29.5625 24.980469 L 28.949219 24.363281 L 28.542969 24.773438 L 29.15625 25.394531 L 29.5625 24.980469 " fill-opacity="1" fill-rule="nonzero"/><path fill="#100f0d" d="M 28.339844 23.746094 L 27.726562 23.125 L 27.320312 23.539062 L 27.933594 24.15625 L 28.339844 23.746094 " fill-opacity="1" fill-rule="nonzero"/><path fill="#100f0d" d="M 26.710938 22.917969 L 27.117188 22.507812 L 26.589844 21.972656 L 26.589844 21.511719 L 26.015625 21.511719 L 26.015625 22.386719 L 26.183594 22.386719 L 26.710938 22.917969 " fill-opacity="1" fill-rule="nonzero"/><path fill="#100f0d" d="M 26.589844 19.761719 L 26.015625 19.761719 L 26.015625 20.636719 L 26.589844 20.636719 L 26.589844 19.761719 " fill-opacity="1" fill-rule="nonzero"/><path fill="#100f0d" d="M 26.589844 18.015625 L 26.015625 18.015625 L 26.015625 18.886719 L 26.589844 18.886719 L 26.589844 18.015625 " fill-opacity="1" fill-rule="nonzero"/><path fill="#100f0d" d="M 26.589844 9.269531 L 26.015625 9.269531 L 26.015625 10.144531 L 26.589844 10.144531 L 26.589844 9.269531 " fill-opacity="1" fill-rule="nonzero"/><path fill="#100f0d" d="M 26.589844 12.765625 L 26.015625 12.765625 L 26.015625 13.640625 L 26.589844 13.640625 L 26.589844 12.765625 " fill-opacity="1" fill-rule="nonzero"/><path fill="#100f0d" d="M 26.589844 16.265625 L 26.015625 16.265625 L 26.015625 17.140625 L 26.589844 17.140625 L 26.589844 16.265625 " fill-opacity="1" fill-rule="nonzero"/><path fill="#100f0d" d="M 26.589844 14.515625 L 26.015625 14.515625 L 26.015625 15.390625 L 26.589844 15.390625 L 26.589844 14.515625 " fill-opacity="1" fill-rule="nonzero"/><path fill="#100f0d" d="M 26.589844 11.019531 L 26.015625 11.019531 L 26.015625 11.890625 L 26.589844 11.890625 L 26.589844 11.019531 " fill-opacity="1" fill-rule="nonzero"/><path fill="#100f0d" d="M 5.03125 29.453125 L 5.1875 30.015625 C 5.527344 29.914062 5.890625 29.828125 6.269531 29.75 L 6.15625 29.179688 C 5.761719 29.257812 5.382812 29.351562 5.03125 29.453125 " fill-opacity="1" fill-rule="nonzero"/><path fill="#100f0d" d="M 14.058594 29.75 C 14.433594 29.828125 14.800781 29.914062 15.136719 30.015625 L 15.296875 29.453125 C 14.945312 29.351562 14.5625 29.257812 14.171875 29.179688 L 14.058594 29.75 " fill-opacity="1" fill-rule="nonzero"/><path fill="#100f0d" d="M 13.03125 28.988281 C 12.660156 28.9375 12.273438 28.894531 11.886719 28.867188 L 11.84375 29.445312 C 12.21875 29.476562 12.59375 29.515625 12.957031 29.566406 L 13.03125 28.988281 " fill-opacity="1" fill-rule="nonzero"/><path fill="#100f0d" d="M 2.871094 30.398438 L 3.195312 30.882812 C 3.457031 30.703125 3.777344 30.535156 4.148438 30.378906 L 3.925781 29.839844 C 3.519531 30.011719 3.167969 30.199219 2.871094 30.398438 " fill-opacity="1" fill-rule="nonzero"/><path fill="#100f0d" d="M 7.292969 28.988281 L 7.371094 29.566406 C 7.730469 29.515625 8.105469 29.476562 8.484375 29.445312 L 8.441406 28.867188 C 8.050781 28.894531 7.664062 28.9375 7.292969 28.988281 " fill-opacity="1" fill-rule="nonzero"/><path fill="#100f0d" d="M 9.589844 28.808594 L 9.601562 29.390625 C 9.691406 29.386719 9.785156 29.386719 9.875 29.386719 L 9.875 29.964844 L 10.453125 29.964844 L 10.453125 29.386719 C 10.542969 29.386719 10.632812 29.386719 10.722656 29.390625 L 10.738281 28.808594 C 10.355469 28.796875 9.96875 28.796875 9.589844 28.808594 " fill-opacity="1" fill-rule="nonzero"/><path fill="#100f0d" d="M 10.453125 18.597656 L 9.875 18.597656 L 9.875 19.472656 L 10.453125 19.472656 L 10.453125 18.597656 " fill-opacity="1" fill-rule="nonzero"/><path fill="#100f0d" d="M 10.453125 20.347656 L 9.875 20.347656 L 9.875 21.21875 L 10.453125 21.21875 L 10.453125 20.347656 " fill-opacity="1" fill-rule="nonzero"/><path fill="#100f0d" d="M 10.453125 23.84375 L 9.875 23.84375 L 9.875 24.71875 L 10.453125 24.71875 L 10.453125 23.84375 " fill-opacity="1" fill-rule="nonzero"/><path fill="#100f0d" d="M 10.453125 22.09375 L 9.875 22.09375 L 9.875 22.96875 L 10.453125 22.96875 L 10.453125 22.09375 " fill-opacity="1" fill-rule="nonzero"/><path fill="#100f0d" d="M 10.453125 27.34375 L 9.875 27.34375 L 9.875 28.21875 L 10.453125 28.21875 L 10.453125 27.34375 " fill-opacity="1" fill-rule="nonzero"/><path fill="#100f0d" d="M 10.453125 25.59375 L 9.875 25.59375 L 9.875 26.46875 L 10.453125 26.46875 L 10.453125 25.59375 " fill-opacity="1" fill-rule="nonzero"/><path fill="#100f0d" d="M 10.738281 32.296875 L 11.605469 32.296875 L 11.605469 31.714844 L 10.738281 31.714844 L 10.738281 32.296875 " fill-opacity="1" fill-rule="nonzero"/><path fill="#100f0d" d="M 12.46875 32.296875 L 13.332031 32.296875 L 13.332031 31.714844 L 12.46875 31.714844 L 12.46875 32.296875 " fill-opacity="1" fill-rule="nonzero"/><path fill="#100f0d" d="M 14.199219 32.296875 L 15.0625 32.296875 L 15.0625 31.714844 L 14.199219 31.714844 L 14.199219 32.296875 " fill-opacity="1" fill-rule="nonzero"/><path fill="#100f0d" d="M 9.875 31.714844 L 10.453125 31.714844 L 10.453125 30.839844 L 9.875 30.839844 L 9.875 31.714844 " fill-opacity="1" fill-rule="nonzero"/><path fill="#100f0d" d="M 22.421875 15.390625 C 21.945312 15.390625 21.558594 15.78125 21.558594 16.265625 C 21.558594 16.746094 21.945312 17.140625 22.421875 17.140625 C 22.898438 17.140625 23.289062 16.746094 23.289062 16.265625 C 23.289062 15.78125 22.898438 15.390625 22.421875 15.390625 " fill-opacity="1" fill-rule="nonzero"/><g clip-path="url(#f89c940a7c)"><path fill="#100f0d" d="M 33.21875 33.171875 L 29.828125 33.171875 L 28.722656 30.101562 L 33.21875 26.730469 Z M 28.917969 33.171875 L 28.296875 32.371094 C 28.25 32.308594 28.179688 32.269531 28.101562 32.261719 C 27.773438 32.222656 27.457031 32.09375 27.195312 31.882812 C 27.070312 31.785156 26.960938 31.667969 26.867188 31.542969 L 26.851562 31.507812 L 28.238281 30.464844 L 29.214844 33.171875 Z M 24.632812 33.171875 L 26.382812 31.859375 C 26.511719 32.039062 26.664062 32.203125 26.839844 32.339844 C 27.152344 32.59375 27.523438 32.757812 27.914062 32.824219 L 28.1875 33.171875 Z M 22.007812 18.261719 C 22.140625 18.289062 22.28125 18.304688 22.421875 18.304688 C 22.90625 18.304688 23.351562 18.132812 23.699219 17.84375 L 27.417969 28.179688 L 25.96875 29.265625 Z M 20.078125 27.632812 L 22.421875 21.117188 L 24.765625 27.632812 Z M 18.226562 31.078125 C 18.113281 31.394531 17.914062 31.671875 17.652344 31.882812 C 17.386719 32.09375 17.074219 32.222656 16.742188 32.261719 C 16.667969 32.269531 16.597656 32.308594 16.550781 32.371094 L 15.386719 33.851562 L 21.148438 17.84375 C 21.191406 17.878906 21.234375 17.914062 21.28125 17.945312 L 22.117188 20.265625 Z M 16.367188 33.542969 L 16.929688 32.824219 C 17.234375 32.773438 17.523438 32.660156 17.785156 32.496094 C 17.554688 32.859375 17.066406 33.222656 16.367188 33.542969 Z M 14.679688 34.117188 C 13.445312 34.429688 11.910156 34.628906 10.164062 34.628906 C 8.039062 34.628906 6.046875 34.332031 4.554688 33.792969 C 3.175781 33.292969 2.382812 32.644531 2.382812 32.007812 L 2.382812 16.304688 C 2.816406 16.734375 3.480469 17.117188 4.359375 17.433594 C 5.914062 17.996094 7.976562 18.304688 10.164062 18.304688 C 12.351562 18.304688 14.410156 17.996094 15.964844 17.433594 C 16.84375 17.117188 17.511719 16.734375 17.945312 16.304688 L 17.945312 25.042969 Z M 6.992188 2.976562 L 12.179688 8.222656 L 12.179688 11.980469 C 11.527344 11.921875 10.851562 11.890625 10.164062 11.890625 C 9.058594 11.890625 7.984375 11.972656 6.992188 12.121094 Z M 23.863281 16.265625 C 23.863281 17.070312 23.21875 17.722656 22.421875 17.722656 C 21.628906 17.722656 20.980469 17.070312 20.980469 16.265625 C 20.980469 15.460938 21.628906 14.808594 22.421875 14.808594 C 23.21875 14.808594 23.863281 15.460938 23.863281 16.265625 Z M 12.757812 8.394531 L 31.777344 8.394531 L 31.777344 24.90625 L 27.898438 27.816406 L 24.132812 17.347656 C 24.328125 17.03125 24.441406 16.664062 24.441406 16.265625 C 24.441406 15.574219 24.097656 14.960938 23.574219 14.589844 L 23.574219 12.765625 C 23.574219 12.605469 23.445312 12.476562 23.289062 12.476562 L 23.289062 11.601562 C 23.289062 11.367188 23.199219 11.148438 23.035156 10.980469 C 22.871094 10.816406 22.652344 10.726562 22.421875 10.726562 C 21.945312 10.726562 21.558594 11.117188 21.558594 11.601562 L 21.558594 12.476562 C 21.398438 12.476562 21.269531 12.605469 21.269531 12.765625 L 21.269531 14.59375 C 20.75 14.960938 20.40625 15.574219 20.40625 16.265625 C 20.40625 16.660156 20.519531 17.03125 20.714844 17.347656 L 18.519531 23.441406 L 18.519531 15.097656 C 18.519531 14.1875 17.613281 13.359375 15.964844 12.761719 C 15.046875 12.429688 13.949219 12.1875 12.757812 12.042969 Z M 32.355469 24.472656 L 32.355469 8.101562 L 32.351562 8.101562 C 32.351562 8.027344 32.324219 7.953125 32.269531 7.894531 L 26.503906 2.066406 C 26.453125 2.011719 26.378906 1.980469 26.300781 1.980469 L 6.726562 1.980469 C 6.648438 1.980469 6.574219 2.003906 6.515625 2.054688 C 6.445312 2.117188 6.417969 2.195312 6.417969 2.273438 L 6.417969 12.21875 C 5.667969 12.359375 4.972656 12.542969 4.359375 12.761719 C 2.714844 13.359375 1.804688 14.1875 1.804688 15.097656 L 1.804688 32.007812 C 1.804688 32.917969 2.714844 33.746094 4.359375 34.34375 C 5.914062 34.902344 7.976562 35.214844 10.164062 35.214844 C 11.734375 35.214844 13.195312 35.058594 14.441406 34.78125 L 14.242188 35.328125 C 14.203125 35.445312 14.226562 35.578125 14.320312 35.660156 C 14.375 35.707031 14.445312 35.730469 14.511719 35.730469 C 14.59375 35.730469 14.679688 35.691406 14.734375 35.621094 L 15.648438 34.457031 C 17.199219 33.949219 18.238281 33.222656 18.46875 32.378906 C 18.503906 32.253906 18.519531 32.128906 18.519531 32.007812 L 18.519531 31.773438 C 18.621094 31.617188 18.703125 31.453125 18.769531 31.277344 L 19.871094 28.21875 L 24.976562 28.21875 L 25.484375 29.628906 L 18.355469 34.980469 C 18.132812 35.148438 18.25 35.503906 18.527344 35.503906 L 35.234375 35.503906 C 35.394531 35.503906 35.523438 35.375 35.523438 35.214844 L 35.523438 22.675781 C 35.523438 22.433594 35.253906 22.296875 35.0625 22.441406 L 32.355469 24.472656 " fill-opacity="1" fill-rule="nonzero"/></g></svg>