<svg xmlns="http://www.w3.org/2000/svg" xmlns:xlink="http://www.w3.org/1999/xlink" width="50" zoomAndPan="magnify" viewBox="0 0 37.5 37.499999" height="50" preserveAspectRatio="xMidYMid meet" version="1.0"><defs><clipPath id="7e7c2cb7ea"><path d="M 1.5 1.5 L 36 1.5 L 36 36 L 1.5 36 Z M 1.5 1.5 " clip-rule="nonzero"/></clipPath></defs><path fill="#000000" d="M 20.402344 29.101562 L 12.785156 29.101562 L 16.59375 22.359375 L 19.355469 27.253906 C 19.359375 27.261719 19.367188 27.273438 19.371094 27.28125 L 19.375 27.28125 Z M 20.996094 29.789062 L 25.300781 29.789062 C 25.304688 29.789062 25.308594 29.789062 25.308594 29.789062 L 27.421875 29.789062 C 27.613281 29.789062 27.765625 29.636719 27.765625 29.445312 L 27.765625 8.054688 C 27.765625 7.863281 27.613281 7.710938 27.421875 7.710938 L 10.078125 7.710938 C 9.886719 7.710938 9.734375 7.863281 9.734375 8.054688 L 9.734375 29.445312 C 9.734375 29.636719 9.886719 29.789062 10.078125 29.789062 Z M 13.496094 18.863281 L 24.269531 18.863281 C 24.460938 18.863281 24.613281 19.015625 24.613281 19.207031 C 24.613281 19.398438 24.460938 19.550781 24.269531 19.550781 L 13.496094 19.550781 C 13.304688 19.550781 13.152344 19.398438 13.152344 19.207031 C 13.152344 19.015625 13.304688 18.863281 13.496094 18.863281 Z M 20.066406 27.113281 L 21.1875 29.101562 L 24.714844 29.101562 L 21.828125 23.992188 Z M 13.496094 14.441406 L 22.738281 14.441406 C 22.925781 14.441406 23.082031 14.597656 23.082031 14.789062 C 23.082031 14.976562 22.925781 15.132812 22.738281 15.132812 L 13.496094 15.132812 C 13.304688 15.132812 13.152344 14.976562 13.152344 14.789062 C 13.152344 14.597656 13.304688 14.441406 13.496094 14.441406 Z M 20.085938 10.710938 L 13.496094 10.710938 C 13.304688 10.710938 13.152344 10.558594 13.152344 10.367188 C 13.152344 10.175781 13.304688 10.023438 13.496094 10.023438 L 20.085938 10.023438 C 20.277344 10.023438 20.429688 10.175781 20.429688 10.367188 C 20.429688 10.558594 20.277344 10.710938 20.085938 10.710938 " fill-opacity="1" fill-rule="evenodd"/><g clip-path="url(#7e7c2cb7ea)"><path fill="#000000" d="M 7.019531 1.5 L 30.480469 1.5 C 33.515625 1.5 36 3.984375 36 7.019531 L 36 30.480469 C 36 33.515625 33.515625 36 30.480469 36 L 7.019531 36 C 3.984375 36 1.5 33.515625 1.5 30.480469 L 1.5 7.019531 C 1.5 3.984375 3.984375 1.5 7.019531 1.5 Z M 7.019531 3.570312 C 5.121094 3.570312 3.570312 5.121094 3.570312 7.019531 L 3.570312 30.480469 C 3.570312 32.378906 5.121094 33.929688 7.019531 33.929688 L 30.480469 33.929688 C 32.378906 33.929688 33.929688 32.378906 33.929688 30.480469 L 33.929688 7.019531 C 33.929688 5.121094 32.378906 3.570312 30.480469 3.570312 L 7.019531 3.570312 " fill-opacity="1" fill-rule="evenodd"/></g></svg>