<svg xmlns="http://www.w3.org/2000/svg" xmlns:xlink="http://www.w3.org/1999/xlink" width="50" zoomAndPan="magnify" viewBox="0 0 37.5 37.499999" height="50" preserveAspectRatio="xMidYMid meet" version="1.0"><defs><clipPath id="cef2ca7083"><path d="M 1.222656 4 L 36.007812 4 L 36.007812 32 L 1.222656 32 Z M 1.222656 4 " clip-rule="nonzero"/></clipPath><clipPath id="c6cc4de516"><path d="M 12 1.222656 L 25 1.222656 L 25 8 L 12 8 Z M 12 1.222656 " clip-rule="nonzero"/></clipPath><clipPath id="fc867c742c"><path d="M 1.222656 34 L 36 34 L 36 36.007812 L 1.222656 36.007812 Z M 1.222656 34 " clip-rule="nonzero"/></clipPath></defs><path fill="#000000" d="M 28.683594 14.039062 L 32.957031 14.039062 L 32.957031 18.308594 L 28.683594 18.308594 Z M 28.683594 14.039062 " fill-opacity="1" fill-rule="nonzero"/><path fill="#000000" d="M 32.039062 9.15625 L 29.597656 9.15625 C 29.347656 9.15625 29.132812 9.246094 28.953125 9.421875 C 28.773438 9.601562 28.683594 9.816406 28.683594 10.070312 L 28.683594 13.425781 L 32.957031 13.425781 L 32.957031 10.070312 C 32.957031 9.816406 32.867188 9.601562 32.6875 9.421875 C 32.507812 9.246094 32.292969 9.15625 32.039062 9.15625 Z M 32.039062 9.15625 " fill-opacity="1" fill-rule="nonzero"/><g clip-path="url(#cef2ca7083)"><path fill="#000000" d="M 35.09375 4.882812 L 25.023438 4.882812 L 25.023438 6.597656 C 25.023438 7.335938 24.308594 7.933594 23.433594 7.933594 L 13.796875 7.933594 C 12.917969 7.933594 12.207031 7.335938 12.207031 6.597656 L 12.207031 4.882812 L 2.136719 4.882812 C 1.882812 4.882812 1.667969 4.972656 1.488281 5.152344 C 1.3125 5.328125 1.222656 5.546875 1.222656 5.796875 L 1.222656 30.210938 C 1.222656 30.460938 1.3125 30.679688 1.488281 30.855469 C 1.667969 31.035156 1.882812 31.125 2.136719 31.125 L 35.09375 31.125 C 35.34375 31.125 35.558594 31.035156 35.738281 30.855469 C 35.917969 30.679688 36.007812 30.460938 36.007812 30.210938 L 36.007812 5.796875 C 36.007812 5.546875 35.917969 5.328125 35.738281 5.152344 C 35.558594 4.972656 35.34375 4.882812 35.09375 4.882812 Z M 33.566406 27.160156 C 33.566406 27.359375 33.527344 27.554688 33.449219 27.742188 C 33.371094 27.929688 33.261719 28.09375 33.117188 28.238281 C 32.976562 28.378906 32.8125 28.488281 32.625 28.566406 C 32.4375 28.644531 32.242188 28.683594 32.039062 28.683594 L 5.1875 28.683594 C 4.984375 28.683594 4.792969 28.644531 4.605469 28.566406 C 4.417969 28.488281 4.253906 28.378906 4.109375 28.238281 C 3.964844 28.09375 3.855469 27.929688 3.777344 27.742188 C 3.703125 27.554688 3.664062 27.359375 3.664062 27.160156 L 3.664062 10.070312 C 3.664062 9.867188 3.703125 9.671875 3.777344 9.488281 C 3.855469 9.300781 3.964844 9.136719 4.109375 8.992188 C 4.253906 8.847656 4.417969 8.738281 4.605469 8.660156 C 4.792969 8.582031 4.984375 8.542969 5.1875 8.542969 L 7.628906 8.542969 C 7.832031 8.542969 8.027344 8.582031 8.210938 8.660156 C 8.398438 8.738281 8.566406 8.847656 8.707031 8.992188 C 8.851562 9.136719 8.960938 9.300781 9.039062 9.488281 C 9.117188 9.671875 9.15625 9.867188 9.15625 10.070312 L 9.15625 13.425781 L 12.511719 13.425781 C 12.714844 13.425781 12.910156 13.464844 13.09375 13.542969 C 13.28125 13.621094 13.445312 13.730469 13.589844 13.875 C 13.734375 14.015625 13.84375 14.183594 13.921875 14.367188 C 14 14.554688 14.035156 14.75 14.039062 14.953125 L 14.039062 18.308594 L 23.191406 18.308594 L 23.191406 14.953125 C 23.191406 14.75 23.230469 14.554688 23.308594 14.367188 C 23.386719 14.183594 23.496094 14.015625 23.640625 13.875 C 23.78125 13.730469 23.945312 13.621094 24.132812 13.542969 C 24.320312 13.464844 24.515625 13.425781 24.71875 13.425781 L 28.074219 13.425781 L 28.074219 10.070312 C 28.074219 9.867188 28.113281 9.671875 28.191406 9.488281 C 28.269531 9.300781 28.378906 9.136719 28.519531 8.992188 C 28.664062 8.847656 28.828125 8.738281 29.015625 8.660156 C 29.203125 8.582031 29.398438 8.542969 29.597656 8.542969 L 32.039062 8.542969 C 32.242188 8.542969 32.4375 8.582031 32.625 8.660156 C 32.8125 8.738281 32.976562 8.847656 33.117188 8.992188 C 33.261719 9.136719 33.371094 9.300781 33.449219 9.488281 C 33.527344 9.671875 33.566406 9.867188 33.566406 10.070312 Z M 33.566406 27.160156 " fill-opacity="1" fill-rule="nonzero"/></g><path fill="#000000" d="M 28.683594 18.917969 L 32.957031 18.917969 L 32.957031 23.191406 L 28.683594 23.191406 Z M 28.683594 18.917969 " fill-opacity="1" fill-rule="nonzero"/><g clip-path="url(#c6cc4de516)"><path fill="#000000" d="M 13.796875 7.324219 L 23.433594 7.324219 C 23.972656 7.324219 24.410156 6.996094 24.410156 6.597656 L 24.410156 2.980469 C 24.410156 2.582031 23.972656 2.253906 23.433594 2.253906 L 20.1875 2.253906 C 20.027344 2.253906 19.929688 2.175781 19.890625 2.023438 C 19.773438 1.558594 19.238281 1.222656 18.613281 1.222656 C 17.992188 1.222656 17.453125 1.558594 17.335938 2.023438 C 17.296875 2.175781 17.199219 2.253906 17.039062 2.253906 L 13.796875 2.253906 C 13.257812 2.253906 12.816406 2.582031 12.816406 2.980469 L 12.816406 6.597656 C 12.816406 6.996094 13.257812 7.324219 13.796875 7.324219 Z M 15.5625 4.273438 L 21.664062 4.273438 C 21.75 4.273438 21.820312 4.300781 21.882812 4.363281 C 21.941406 4.421875 21.972656 4.492188 21.972656 4.578125 C 21.972656 4.660156 21.941406 4.734375 21.882812 4.792969 C 21.820312 4.851562 21.75 4.882812 21.664062 4.882812 L 15.5625 4.882812 C 15.480469 4.882812 15.40625 4.851562 15.347656 4.792969 C 15.289062 4.734375 15.257812 4.660156 15.257812 4.578125 C 15.257812 4.492188 15.289062 4.421875 15.347656 4.363281 C 15.40625 4.300781 15.480469 4.273438 15.5625 4.273438 Z M 15.5625 4.273438 " fill-opacity="1" fill-rule="nonzero"/></g><path fill="#000000" d="M 23.800781 23.800781 L 28.074219 23.800781 L 28.074219 28.074219 L 23.800781 28.074219 Z M 23.800781 23.800781 " fill-opacity="1" fill-rule="nonzero"/><path fill="#000000" d="M 4.273438 18.917969 L 8.542969 18.917969 L 8.542969 23.191406 L 4.273438 23.191406 Z M 4.273438 18.917969 " fill-opacity="1" fill-rule="nonzero"/><path fill="#000000" d="M 4.273438 14.039062 L 8.542969 14.039062 L 8.542969 18.308594 L 4.273438 18.308594 Z M 4.273438 14.039062 " fill-opacity="1" fill-rule="nonzero"/><path fill="#000000" d="M 7.628906 9.15625 L 5.1875 9.15625 C 4.933594 9.15625 4.71875 9.246094 4.542969 9.421875 C 4.363281 9.601562 4.273438 9.816406 4.273438 10.070312 L 4.273438 13.425781 L 8.542969 13.425781 L 8.542969 10.070312 C 8.542969 9.816406 8.453125 9.601562 8.277344 9.421875 C 8.097656 9.246094 7.882812 9.15625 7.628906 9.15625 Z M 7.628906 9.15625 " fill-opacity="1" fill-rule="nonzero"/><path fill="#000000" d="M 9.15625 18.917969 L 13.425781 18.917969 L 13.425781 23.191406 L 9.15625 23.191406 Z M 9.15625 18.917969 " fill-opacity="1" fill-rule="nonzero"/><path fill="#000000" d="M 9.15625 23.800781 L 13.425781 23.800781 L 13.425781 28.074219 L 9.15625 28.074219 Z M 9.15625 23.800781 " fill-opacity="1" fill-rule="nonzero"/><path fill="#000000" d="M 4.273438 27.160156 C 4.273438 27.410156 4.363281 27.625 4.542969 27.804688 C 4.71875 27.984375 4.933594 28.074219 5.1875 28.074219 L 8.542969 28.074219 L 8.542969 23.800781 L 4.273438 23.800781 Z M 4.273438 27.160156 " fill-opacity="1" fill-rule="nonzero"/><path fill="#000000" d="M 28.683594 28.074219 L 32.039062 28.074219 C 32.292969 28.074219 32.507812 27.984375 32.6875 27.804688 C 32.867188 27.625 32.957031 27.410156 32.957031 27.160156 L 32.957031 23.800781 L 28.683594 23.800781 Z M 28.683594 28.074219 " fill-opacity="1" fill-rule="nonzero"/><g clip-path="url(#fc867c742c)"><path fill="#000000" d="M 1.242188 36.007812 L 35.984375 36.007812 C 35.949219 35.753906 35.867188 35.515625 35.746094 35.289062 C 35.621094 35.0625 35.464844 34.867188 35.269531 34.699219 C 35.074219 34.53125 34.859375 34.402344 34.617188 34.3125 C 34.375 34.222656 34.128906 34.175781 33.871094 34.175781 L 3.355469 34.175781 C 3.101562 34.175781 2.851562 34.222656 2.613281 34.3125 C 2.371094 34.402344 2.152344 34.53125 1.960938 34.699219 C 1.765625 34.867188 1.605469 35.0625 1.484375 35.289062 C 1.359375 35.515625 1.28125 35.753906 1.242188 36.007812 Z M 1.242188 36.007812 " fill-opacity="1" fill-rule="nonzero"/></g><path fill="#000000" d="M 7.324219 31.734375 L 10.375 31.734375 L 10.375 33.566406 L 7.324219 33.566406 Z M 7.324219 31.734375 " fill-opacity="1" fill-rule="nonzero"/><path fill="#000000" d="M 12.511719 14.039062 L 9.15625 14.039062 L 9.15625 18.308594 L 13.425781 18.308594 L 13.425781 14.953125 C 13.425781 14.699219 13.335938 14.484375 13.160156 14.304688 C 12.980469 14.125 12.765625 14.039062 12.511719 14.039062 Z M 12.511719 14.039062 " fill-opacity="1" fill-rule="nonzero"/><path fill="#000000" d="M 23.800781 18.917969 L 28.074219 18.917969 L 28.074219 23.191406 L 23.800781 23.191406 Z M 23.800781 18.917969 " fill-opacity="1" fill-rule="nonzero"/><path fill="#000000" d="M 23.800781 14.953125 L 23.800781 18.308594 L 28.074219 18.308594 L 28.074219 14.039062 L 24.71875 14.039062 C 24.464844 14.039062 24.25 14.125 24.070312 14.304688 C 23.890625 14.484375 23.800781 14.699219 23.800781 14.953125 Z M 23.800781 14.953125 " fill-opacity="1" fill-rule="nonzero"/><path fill="#000000" d="M 18.917969 18.917969 L 23.191406 18.917969 L 23.191406 23.191406 L 18.917969 23.191406 Z M 18.917969 18.917969 " fill-opacity="1" fill-rule="nonzero"/><path fill="#000000" d="M 14.039062 23.800781 L 18.308594 23.800781 L 18.308594 28.074219 L 14.039062 28.074219 Z M 14.039062 23.800781 " fill-opacity="1" fill-rule="nonzero"/><path fill="#000000" d="M 14.039062 18.917969 L 18.308594 18.917969 L 18.308594 23.191406 L 14.039062 23.191406 Z M 14.039062 18.917969 " fill-opacity="1" fill-rule="nonzero"/><path fill="#000000" d="M 18.917969 23.800781 L 23.191406 23.800781 L 23.191406 28.074219 L 18.917969 28.074219 Z M 18.917969 23.800781 " fill-opacity="1" fill-rule="nonzero"/><path fill="#000000" d="M 26.851562 31.734375 L 29.90625 31.734375 L 29.90625 33.566406 L 26.851562 33.566406 Z M 26.851562 31.734375 " fill-opacity="1" fill-rule="nonzero"/></svg>