<svg xmlns="http://www.w3.org/2000/svg" xmlns:xlink="http://www.w3.org/1999/xlink" width="50" zoomAndPan="magnify" viewBox="0 0 37.5 37.499999" height="50" preserveAspectRatio="xMidYMid meet" version="1.0"><defs><clipPath id="56bca0ee9f"><path d="M 1.5 1.5 L 36 1.5 L 36 36 L 1.5 36 Z M 1.5 1.5 " clip-rule="nonzero"/></clipPath></defs><g clip-path="url(#56bca0ee9f)"><path fill="#000000" d="M 34.273438 1.5 L 29.101562 1.5 C 28.871094 1.5 28.652344 1.542969 28.441406 1.632812 C 28.226562 1.71875 28.042969 1.84375 27.878906 2.003906 C 27.71875 2.167969 27.59375 2.351562 27.507812 2.566406 C 27.417969 2.777344 27.375 2.996094 27.375 3.226562 L 27.375 32.550781 L 25.648438 32.550781 L 25.648438 11.851562 C 25.648438 11.621094 25.605469 11.402344 25.519531 11.191406 C 25.429688 10.976562 25.308594 10.792969 25.144531 10.628906 C 24.984375 10.46875 24.796875 10.34375 24.585938 10.257812 C 24.375 10.167969 24.152344 10.125 23.925781 10.125 L 18.75 10.125 C 18.519531 10.125 18.300781 10.167969 18.089844 10.257812 C 17.878906 10.34375 17.691406 10.46875 17.53125 10.628906 C 17.367188 10.792969 17.242188 10.976562 17.15625 11.191406 C 17.070312 11.402344 17.023438 11.621094 17.023438 11.851562 L 17.023438 32.550781 L 15.300781 32.550781 L 15.300781 20.476562 C 15.300781 20.246094 15.257812 20.027344 15.167969 19.816406 C 15.082031 19.601562 14.957031 19.417969 14.792969 19.253906 C 14.632812 19.09375 14.445312 18.96875 14.234375 18.882812 C 14.023438 18.792969 13.804688 18.75 13.574219 18.75 L 8.398438 18.75 C 8.171875 18.75 7.949219 18.792969 7.738281 18.882812 C 7.527344 18.96875 7.34375 19.09375 7.179688 19.253906 C 7.019531 19.417969 6.894531 19.601562 6.804688 19.816406 C 6.71875 20.027344 6.675781 20.246094 6.675781 20.476562 L 6.675781 32.550781 L 4.949219 32.550781 L 4.949219 3.226562 C 4.949219 2.996094 4.90625 2.777344 4.820312 2.566406 C 4.730469 2.355469 4.605469 2.167969 4.445312 2.003906 C 4.28125 1.84375 4.097656 1.71875 3.886719 1.632812 C 3.671875 1.542969 3.453125 1.5 3.226562 1.5 C 2.996094 1.5 2.777344 1.542969 2.566406 1.632812 C 2.355469 1.71875 2.167969 1.84375 2.003906 2.003906 C 1.84375 2.167969 1.71875 2.355469 1.632812 2.566406 C 1.542969 2.777344 1.5 2.996094 1.5 3.226562 L 1.5 34.273438 C 1.5 34.503906 1.542969 34.722656 1.632812 34.933594 C 1.71875 35.148438 1.84375 35.332031 2.003906 35.496094 C 2.167969 35.65625 2.351562 35.78125 2.566406 35.867188 C 2.777344 35.957031 2.996094 36 3.226562 36 L 34.273438 36 C 34.503906 36 34.722656 35.957031 34.933594 35.867188 C 35.148438 35.78125 35.332031 35.65625 35.496094 35.496094 C 35.65625 35.332031 35.78125 35.148438 35.867188 34.933594 C 35.957031 34.722656 36 34.503906 36 34.273438 L 36 3.226562 C 36 2.996094 35.957031 2.777344 35.867188 2.566406 C 35.78125 2.351562 35.65625 2.167969 35.496094 2.003906 C 35.332031 1.84375 35.148438 1.71875 34.933594 1.632812 C 34.722656 1.542969 34.503906 1.5 34.273438 1.5 Z M 34.273438 1.5 " fill-opacity="1" fill-rule="nonzero"/></g></svg>