<svg xmlns="http://www.w3.org/2000/svg" xmlns:xlink="http://www.w3.org/1999/xlink" width="50" zoomAndPan="magnify" viewBox="0 0 37.5 37.499999" height="50" preserveAspectRatio="xMidYMid meet" version="1.0"><defs><clipPath id="a6bd20c2c6"><path d="M 18 1.609375 L 35.484375 1.609375 L 35.484375 26 L 18 26 Z M 18 1.609375 " clip-rule="nonzero"/></clipPath><clipPath id="10d13c7e81"><path d="M 1.734375 3 L 34 3 L 34 36.109375 L 1.734375 36.109375 Z M 1.734375 3 " clip-rule="nonzero"/></clipPath></defs><g clip-path="url(#a6bd20c2c6)"><path fill="#000000" d="M 34.699219 3.621094 L 32.300781 2.011719 C 31.683594 1.597656 30.785156 1.875 30.292969 2.628906 L 19.945312 18.519531 C 19.695312 18.902344 19.601562 19.335938 19.648438 19.722656 L 19.304688 22.246094 L 18.898438 25.242188 L 21.453125 23.683594 L 23.605469 22.375 C 23.972656 22.265625 24.328125 22.007812 24.578125 21.625 L 34.925781 5.734375 C 35.417969 4.980469 35.316406 4.035156 34.699219 3.621094 Z M 22.675781 18.761719 C 22.253906 19.410156 21.769531 19.84375 21.59375 19.726562 L 20.910156 19.269531 C 20.738281 19.148438 20.9375 18.527344 21.359375 17.878906 L 30.269531 4.199219 C 30.691406 3.550781 31.175781 3.117188 31.351562 3.234375 L 32.035156 3.695312 C 32.207031 3.8125 32.007812 4.433594 31.585938 5.082031 Z M 24.640625 20.078125 C 24.21875 20.730469 23.730469 21.160156 23.558594 21.042969 L 22.875 20.585938 C 22.699219 20.46875 22.902344 19.847656 23.324219 19.195312 L 32.230469 5.515625 C 32.65625 4.867188 33.140625 4.4375 33.316406 4.554688 L 33.996094 5.011719 C 34.171875 5.128906 33.972656 5.75 33.550781 6.398438 Z M 24.640625 20.078125 " fill-opacity="1" fill-rule="nonzero"/></g><g clip-path="url(#10d13c7e81)"><path fill="#000000" d="M 30.875 15.148438 L 30.875 32.105469 C 30.875 32.722656 30.382812 33.222656 29.773438 33.222656 L 5.703125 33.222656 C 5.09375 33.222656 4.601562 32.722656 4.601562 32.105469 L 4.601562 7.675781 C 4.601562 7.058594 5.09375 6.558594 5.703125 6.558594 L 25.914062 6.558594 L 27.78125 3.6875 L 3.113281 3.6875 C 2.371094 3.6875 1.773438 4.296875 1.773438 5.046875 L 1.773438 34.734375 C 1.773438 35.484375 2.371094 36.09375 3.113281 36.09375 L 32.367188 36.09375 C 33.105469 36.09375 33.703125 35.484375 33.703125 34.734375 L 33.703125 10.804688 Z M 30.875 15.148438 " fill-opacity="1" fill-rule="nonzero"/></g><path fill="#000000" d="M 23.160156 10.789062 C 23.160156 11.539062 22.5625 12.148438 21.820312 12.148438 L 7.757812 12.148438 C 7.019531 12.148438 6.421875 11.539062 6.421875 10.789062 L 6.421875 10.011719 C 6.421875 9.261719 7.019531 8.652344 7.757812 8.652344 L 21.820312 8.652344 C 22.5625 8.652344 23.160156 9.261719 23.160156 10.011719 Z M 23.160156 10.789062 " fill-opacity="1" fill-rule="nonzero"/><path fill="#000000" d="M 19.675781 16.234375 C 19.675781 16.984375 19.199219 17.589844 18.613281 17.589844 L 7.480469 17.589844 C 6.894531 17.589844 6.421875 16.984375 6.421875 16.234375 L 6.421875 15.457031 C 6.421875 14.707031 6.894531 14.097656 7.480469 14.097656 L 18.613281 14.097656 C 19.199219 14.097656 19.675781 14.707031 19.675781 15.457031 Z M 19.675781 16.234375 " fill-opacity="1" fill-rule="nonzero"/><path fill="#000000" d="M 17.738281 21.550781 C 17.738281 22.300781 17.332031 22.910156 16.832031 22.910156 L 7.324219 22.910156 C 6.824219 22.910156 6.421875 22.300781 6.421875 21.550781 L 6.421875 20.773438 C 6.421875 20.023438 6.824219 19.414062 7.324219 19.414062 L 16.832031 19.414062 C 17.332031 19.414062 17.738281 20.023438 17.738281 20.773438 Z M 17.738281 21.550781 " fill-opacity="1" fill-rule="nonzero"/><path fill="#000000" d="M 17.738281 26.992188 C 17.738281 27.742188 17.332031 28.351562 16.832031 28.351562 L 7.324219 28.351562 C 6.824219 28.351562 6.421875 27.742188 6.421875 26.992188 L 6.421875 26.214844 C 6.421875 25.464844 6.824219 24.859375 7.324219 24.859375 L 16.832031 24.859375 C 17.332031 24.859375 17.738281 25.464844 17.738281 26.214844 Z M 17.738281 26.992188 " fill-opacity="1" fill-rule="nonzero"/></svg>