<svg xmlns="http://www.w3.org/2000/svg" xmlns:xlink="http://www.w3.org/1999/xlink" width="50" zoomAndPan="magnify" viewBox="0 0 37.5 37.499999" height="50" preserveAspectRatio="xMidYMid meet" version="1.0"><defs><clipPath id="38ec9db4d0"><path d="M 1.121094 11 L 26 11 L 26 36.527344 L 1.121094 36.527344 Z M 1.121094 11 " clip-rule="nonzero"/></clipPath><clipPath id="fe31e3286d"><path d="M 10 1.277344 L 36.371094 1.277344 L 36.371094 28 L 10 28 Z M 10 1.277344 " clip-rule="nonzero"/></clipPath></defs><g clip-path="url(#38ec9db4d0)"><path fill="#000000" d="M 23.230469 15.492188 L 15.140625 11.597656 C 14.597656 11.335938 13.878906 11.207031 13.164062 11.207031 C 12.445312 11.207031 11.730469 11.335938 11.1875 11.597656 L 3.097656 15.492188 C 2.011719 16.015625 1.121094 17.441406 1.121094 18.652344 L 1.121094 28.039062 C 1.121094 29.253906 1.976562 30.738281 3.023438 31.339844 L 11.257812 36.058594 C 11.785156 36.359375 12.472656 36.507812 13.164062 36.507812 C 13.855469 36.507812 14.542969 36.359375 15.066406 36.058594 L 23.300781 31.339844 C 24.347656 30.738281 25.207031 29.253906 25.207031 28.039062 L 25.207031 18.652344 C 25.207031 17.441406 24.316406 16.015625 23.230469 15.492188 Z M 13.164062 15.800781 C 14.222656 15.800781 15.078125 16.292969 15.078125 16.902344 C 15.078125 17.511719 14.222656 18.007812 13.164062 18.007812 C 12.105469 18.007812 11.246094 17.511719 11.246094 16.902344 C 11.246094 16.292969 12.105469 15.800781 13.164062 15.800781 Z M 5.441406 29.882812 C 5.324219 29.941406 5.199219 29.972656 5.074219 29.972656 C 4.511719 29.972656 3.886719 29.4375 3.542969 28.609375 C 3.121094 27.589844 3.289062 26.507812 3.917969 26.191406 C 4.03125 26.132812 4.15625 26.105469 4.285156 26.105469 C 4.84375 26.105469 5.472656 26.640625 5.816406 27.46875 C 6.238281 28.488281 6.070312 29.570312 5.441406 29.882812 Z M 5.441406 23.8125 C 5.324219 23.871094 5.199219 23.898438 5.074219 23.898438 C 4.511719 23.898438 3.886719 23.363281 3.542969 22.535156 C 3.121094 21.515625 3.289062 20.433594 3.917969 20.121094 C 4.03125 20.058594 4.15625 20.03125 4.285156 20.03125 C 4.84375 20.03125 5.472656 20.566406 5.816406 21.394531 C 6.238281 22.414062 6.070312 23.496094 5.441406 23.8125 Z M 10.914062 32.921875 C 10.800781 32.980469 10.675781 33.007812 10.546875 33.007812 C 9.988281 33.007812 9.359375 32.476562 9.015625 31.644531 C 8.597656 30.625 8.761719 29.542969 9.390625 29.230469 C 9.507812 29.171875 9.632812 29.144531 9.757812 29.144531 C 10.320312 29.144531 10.945312 29.675781 11.289062 30.503906 C 11.710938 31.523438 11.542969 32.605469 10.914062 32.921875 Z M 10.914062 26.847656 C 10.800781 26.90625 10.675781 26.933594 10.546875 26.933594 C 9.988281 26.933594 9.359375 26.402344 9.015625 25.570312 C 8.597656 24.550781 8.761719 23.472656 9.390625 23.15625 C 9.507812 23.097656 9.632812 23.070312 9.757812 23.070312 C 10.320312 23.070312 10.945312 23.601562 11.289062 24.429688 C 11.710938 25.449219 11.542969 26.53125 10.914062 26.847656 Z M 17.308594 31.644531 C 16.964844 32.476562 16.339844 33.007812 15.78125 33.007812 C 15.652344 33.007812 15.527344 32.980469 15.410156 32.921875 C 14.785156 32.605469 14.617188 31.523438 15.039062 30.503906 C 15.382812 29.675781 16.007812 29.144531 16.566406 29.144531 C 16.695312 29.144531 16.820312 29.171875 16.9375 29.230469 C 17.5625 29.542969 17.730469 30.625 17.308594 31.644531 Z M 17.308594 25.570312 C 16.964844 26.402344 16.339844 26.933594 15.78125 26.933594 C 15.652344 26.933594 15.527344 26.90625 15.410156 26.847656 C 14.785156 26.53125 14.617188 25.449219 15.039062 24.429688 C 15.382812 23.601562 16.007812 23.070312 16.566406 23.070312 C 16.695312 23.070312 16.820312 23.097656 16.9375 23.15625 C 17.5625 23.472656 17.730469 24.550781 17.308594 25.570312 Z M 22.78125 28.609375 C 22.441406 29.4375 21.8125 29.972656 21.253906 29.972656 C 21.125 29.972656 21 29.941406 20.882812 29.882812 C 20.257812 29.570312 20.089844 28.488281 20.511719 27.46875 C 20.855469 26.640625 21.480469 26.105469 22.042969 26.105469 C 22.167969 26.105469 22.292969 26.132812 22.410156 26.191406 C 23.039062 26.507812 23.203125 27.589844 22.78125 28.609375 Z M 22.78125 22.535156 C 22.441406 23.363281 21.8125 23.898438 21.253906 23.898438 C 21.125 23.898438 21 23.871094 20.882812 23.8125 C 20.257812 23.496094 20.089844 22.414062 20.511719 21.394531 C 20.855469 20.566406 21.480469 20.03125 22.042969 20.03125 C 22.167969 20.03125 22.292969 20.058594 22.410156 20.121094 C 23.039062 20.433594 23.203125 21.515625 22.78125 22.535156 Z M 23.589844 17.90625 L 13.710938 23.394531 L 13.710938 34.941406 C 13.710938 35.246094 13.464844 35.492188 13.164062 35.492188 C 12.859375 35.492188 12.617188 35.246094 12.617188 34.941406 L 12.617188 23.4375 L 2.660156 17.824219 C 2.394531 17.675781 2.300781 17.339844 2.445312 17.074219 C 2.59375 16.808594 2.925781 16.710938 3.191406 16.859375 L 13.125 22.460938 L 23.058594 16.9375 C 23.324219 16.792969 23.65625 16.890625 23.804688 17.15625 C 23.949219 17.421875 23.851562 17.757812 23.589844 17.90625 Z M 23.589844 17.90625 " fill-opacity="1" fill-rule="nonzero"/></g><g clip-path="url(#fe31e3286d)"><path fill="#000000" d="M 32.960938 7.296875 C 32.558594 6.152344 31.300781 4.882812 30.167969 4.480469 L 21.660156 1.445312 C 21.347656 1.332031 21 1.28125 20.640625 1.28125 C 19.691406 1.28125 18.664062 1.648438 18.046875 2.269531 L 11.425781 8.949219 C 10.996094 9.382812 10.671875 10.027344 10.496094 10.707031 L 10.714844 10.601562 C 11.386719 10.277344 12.253906 10.101562 13.164062 10.101562 C 13.246094 10.101562 13.324219 10.105469 13.40625 10.105469 C 13.726562 9.753906 14.101562 9.542969 14.445312 9.542969 C 14.535156 9.542969 14.625 9.558594 14.710938 9.585938 C 15.042969 9.707031 15.253906 10.039062 15.324219 10.476562 C 15.421875 10.515625 15.519531 10.558594 15.609375 10.601562 L 19.066406 12.265625 C 19.4375 11.617188 19.980469 11.199219 20.464844 11.199219 C 20.558594 11.199219 20.644531 11.214844 20.730469 11.242188 C 21.324219 11.457031 21.535156 12.355469 21.242188 13.3125 L 22.667969 14 L 22.949219 13.714844 L 19.976562 3.003906 C 19.894531 2.710938 20.066406 2.402344 20.355469 2.320312 C 20.648438 2.238281 20.949219 2.410156 21.03125 2.703125 L 24.03125 13.519531 L 34.6875 16.585938 C 34.976562 16.667969 35.144531 16.972656 35.0625 17.269531 C 34.992188 17.511719 34.773438 17.667969 34.535156 17.667969 C 34.492188 17.667969 25.816406 15.179688 23.992188 14.65625 C 24.605469 15.023438 25.148438 15.585938 25.550781 16.238281 C 25.894531 16.335938 26.15625 16.527344 26.253906 16.816406 C 26.34375 17.0625 26.296875 17.339844 26.152344 17.613281 C 26.246094 17.960938 26.300781 18.3125 26.300781 18.652344 L 26.300781 27.234375 C 27.144531 27.109375 27.996094 26.742188 28.53125 26.199219 L 35.152344 19.523438 C 36.003906 18.664062 36.371094 17.023438 35.96875 15.878906 Z M 19.523438 7.6875 C 19.175781 8.460938 18.496094 8.988281 17.902344 8.988281 C 17.8125 8.988281 17.722656 8.976562 17.636719 8.949219 C 16.996094 8.753906 16.804688 7.871094 17.203125 6.976562 C 17.550781 6.203125 18.230469 5.675781 18.824219 5.675781 C 18.914062 5.675781 19.003906 5.691406 19.089844 5.714844 C 19.730469 5.914062 19.925781 6.796875 19.523438 7.6875 Z M 29.09375 11.53125 C 28.945312 11.679688 28.742188 11.75 28.503906 11.75 C 28.011719 11.75 27.382812 11.449219 26.855469 10.914062 C 26.066406 10.121094 25.792969 9.109375 26.242188 8.65625 C 26.390625 8.507812 26.59375 8.4375 26.832031 8.4375 C 27.324219 8.4375 27.953125 8.738281 28.484375 9.273438 C 29.269531 10.066406 29.542969 11.078125 29.09375 11.53125 Z M 30.816406 20.375 C 30.453125 20.515625 30.089844 20.585938 29.761719 20.585938 C 29.160156 20.585938 28.683594 20.355469 28.535156 19.9375 C 28.308594 19.292969 28.960938 18.441406 29.992188 18.035156 C 30.359375 17.890625 30.722656 17.824219 31.050781 17.824219 C 31.648438 17.824219 32.128906 18.054688 32.277344 18.472656 C 32.503906 19.117188 31.851562 19.96875 30.816406 20.375 Z M 30.816406 20.375 " fill-opacity="1" fill-rule="nonzero"/></g></svg>