<svg xmlns="http://www.w3.org/2000/svg" xmlns:xlink="http://www.w3.org/1999/xlink" width="50" zoomAndPan="magnify" viewBox="0 0 37.5 37.499999" height="50" preserveAspectRatio="xMidYMid meet" version="1.0"><path fill="#000000" d="M 22.859375 13.496094 C 22.859375 13.332031 22.84375 13.167969 22.808594 13.007812 L 23.433594 12.660156 C 23.273438 12.058594 22.96875 11.546875 22.519531 11.121094 L 22.15625 11.320312 C 21.996094 11.414062 21.835938 11.410156 21.679688 11.308594 C 21.546875 11.222656 21.410156 11.144531 21.269531 11.082031 C 21.101562 11.003906 21.019531 10.871094 21.019531 10.6875 L 21.019531 10.285156 C 20.40625 10.117188 19.792969 10.117188 19.183594 10.285156 L 19.183594 10.6875 C 19.183594 10.871094 19.101562 11.003906 18.933594 11.082031 C 18.789062 11.144531 18.652344 11.222656 18.523438 11.308594 C 18.367188 11.410156 18.207031 11.414062 18.046875 11.320312 L 17.6875 11.121094 C 17.234375 11.546875 16.929688 12.058594 16.769531 12.660156 L 17.390625 13.007812 C 17.328125 13.332031 17.328125 13.65625 17.390625 13.980469 L 16.769531 14.328125 C 16.929688 14.929688 17.234375 15.445312 17.683594 15.871094 L 18.046875 15.667969 C 18.207031 15.574219 18.367188 15.578125 18.523438 15.679688 C 18.652344 15.769531 18.789062 15.84375 18.933594 15.910156 C 19.101562 15.988281 19.183594 16.117188 19.183594 16.300781 L 19.183594 16.707031 C 19.796875 16.871094 20.40625 16.871094 21.019531 16.703125 L 21.019531 16.300781 C 21.019531 16.117188 21.101562 15.988281 21.269531 15.910156 C 21.410156 15.84375 21.546875 15.769531 21.679688 15.679688 C 21.835938 15.578125 21.996094 15.574219 22.15625 15.667969 L 22.515625 15.871094 C 22.96875 15.441406 23.273438 14.929688 23.433594 14.328125 L 22.808594 13.980469 C 22.84375 13.820312 22.859375 13.660156 22.859375 13.496094 Z M 20.101562 14.6875 C 19.945312 14.6875 19.792969 14.65625 19.644531 14.59375 C 19.5 14.535156 19.371094 14.449219 19.257812 14.335938 C 19.148438 14.226562 19.0625 14.097656 19 13.949219 C 18.941406 13.804688 18.910156 13.652344 18.910156 13.496094 C 18.910156 13.335938 18.941406 13.183594 19 13.039062 C 19.0625 12.894531 19.148438 12.765625 19.257812 12.652344 C 19.371094 12.542969 19.5 12.457031 19.644531 12.394531 C 19.792969 12.335938 19.945312 12.304688 20.101562 12.304688 C 20.257812 12.304688 20.410156 12.335938 20.558594 12.394531 C 20.703125 12.457031 20.832031 12.542969 20.941406 12.652344 C 21.054688 12.765625 21.140625 12.894531 21.203125 13.039062 C 21.261719 13.183594 21.292969 13.335938 21.292969 13.496094 C 21.292969 13.652344 21.261719 13.804688 21.203125 13.949219 C 21.140625 14.097656 21.054688 14.226562 20.941406 14.335938 C 20.832031 14.449219 20.703125 14.535156 20.558594 14.59375 C 20.410156 14.65625 20.257812 14.6875 20.101562 14.6875 Z M 20.101562 14.6875 " fill-opacity="1" fill-rule="nonzero"/><path fill="#000000" d="M 13.289062 14.632812 C 12.992188 14.632812 12.710938 14.691406 12.4375 14.804688 C 12.164062 14.917969 11.925781 15.078125 11.71875 15.285156 C 11.507812 15.492188 11.347656 15.734375 11.234375 16.003906 C 11.121094 16.277344 11.066406 16.5625 11.066406 16.855469 L 12.175781 16.855469 C 12.175781 16.707031 12.203125 16.566406 12.261719 16.429688 C 12.316406 16.292969 12.398438 16.175781 12.5 16.070312 C 12.605469 15.964844 12.726562 15.886719 12.863281 15.828125 C 13 15.773438 13.140625 15.746094 13.289062 15.746094 C 13.433594 15.746094 13.578125 15.773438 13.710938 15.828125 C 13.847656 15.886719 13.96875 15.964844 14.074219 16.070312 C 14.175781 16.175781 14.257812 16.292969 14.3125 16.429688 C 14.371094 16.566406 14.398438 16.707031 14.398438 16.855469 C 14.398438 17.003906 14.371094 17.144531 14.3125 17.28125 C 14.257812 17.417969 14.175781 17.535156 14.074219 17.640625 C 13.96875 17.746094 13.847656 17.824219 13.710938 17.882812 C 13.578125 17.9375 13.433594 17.964844 13.289062 17.964844 C 13.132812 17.964844 13.003906 18.019531 12.894531 18.128906 C 12.785156 18.238281 12.730469 18.367188 12.730469 18.523438 L 12.730469 20.1875 L 13.84375 20.1875 L 13.84375 19.007812 C 14.105469 18.941406 14.347656 18.828125 14.566406 18.671875 C 14.789062 18.515625 14.976562 18.328125 15.125 18.101562 C 15.277344 17.878906 15.386719 17.636719 15.449219 17.371094 C 15.511719 17.109375 15.527344 16.84375 15.492188 16.574219 C 15.457031 16.308594 15.378906 16.054688 15.25 15.816406 C 15.125 15.574219 14.960938 15.367188 14.757812 15.1875 C 14.554688 15.007812 14.324219 14.871094 14.074219 14.777344 C 13.820312 14.679688 13.558594 14.632812 13.289062 14.632812 Z M 13.289062 14.632812 " fill-opacity="1" fill-rule="nonzero"/><path fill="#000000" d="M 12.730469 20.746094 L 13.84375 20.746094 L 13.84375 21.855469 L 12.730469 21.855469 Z M 12.730469 20.746094 " fill-opacity="1" fill-rule="nonzero"/><path fill="#000000" d="M 31.554688 1.855469 C 31.265625 1.855469 30.976562 1.882812 30.6875 1.941406 C 30.402344 1.996094 30.125 2.082031 29.855469 2.195312 C 29.585938 2.304688 29.328125 2.441406 29.085938 2.605469 C 28.84375 2.765625 28.621094 2.949219 28.414062 3.15625 C 28.207031 3.363281 28.023438 3.589844 27.859375 3.832031 C 27.699219 4.074219 27.5625 4.328125 27.449219 4.597656 C 27.335938 4.867188 27.253906 5.148438 27.195312 5.433594 C 27.140625 5.71875 27.109375 6.007812 27.109375 6.300781 C 27.109375 6.59375 27.140625 6.878906 27.195312 7.167969 C 27.253906 7.453125 27.335938 7.730469 27.449219 8 C 27.5625 8.269531 27.699219 8.527344 27.859375 8.769531 C 28.023438 9.011719 28.207031 9.238281 28.414062 9.441406 C 28.621094 9.648438 28.84375 9.832031 29.085938 9.996094 C 29.328125 10.15625 29.585938 10.292969 29.855469 10.40625 C 30.125 10.519531 30.402344 10.601562 30.6875 10.660156 C 30.976562 10.714844 31.265625 10.746094 31.554688 10.746094 C 31.847656 10.746094 32.136719 10.714844 32.421875 10.660156 C 32.707031 10.601562 32.988281 10.519531 33.257812 10.40625 C 33.527344 10.292969 33.78125 10.15625 34.023438 9.996094 C 34.265625 9.832031 34.492188 9.648438 34.699219 9.441406 C 34.90625 9.238281 35.089844 9.011719 35.25 8.769531 C 35.414062 8.527344 35.550781 8.269531 35.660156 8 C 35.773438 7.730469 35.859375 7.453125 35.914062 7.167969 C 35.972656 6.878906 36 6.59375 36 6.300781 C 36 6.007812 35.972656 5.71875 35.914062 5.433594 C 35.859375 5.148438 35.773438 4.867188 35.660156 4.597656 C 35.550781 4.328125 35.414062 4.074219 35.25 3.832031 C 35.089844 3.589844 34.90625 3.363281 34.699219 3.15625 C 34.492188 2.949219 34.265625 2.765625 34.023438 2.605469 C 33.78125 2.441406 33.527344 2.304688 33.257812 2.195312 C 32.988281 2.082031 32.707031 1.996094 32.421875 1.941406 C 32.136719 1.882812 31.847656 1.855469 31.554688 1.855469 Z M 31.457031 8.277344 C 31.386719 8.371094 31.296875 8.425781 31.183594 8.441406 C 31.164062 8.445312 31.144531 8.445312 31.125 8.445312 C 31.03125 8.445312 30.949219 8.417969 30.875 8.363281 L 29.144531 7.066406 L 29.644531 6.398438 L 31.039062 7.445312 L 33.382812 4.320312 L 34.050781 4.820312 Z M 31.457031 8.277344 " fill-opacity="1" fill-rule="nonzero"/><path fill="#000000" d="M 6 36.300781 C 6.292969 36.300781 6.582031 36.273438 6.867188 36.214844 C 7.152344 36.15625 7.429688 36.074219 7.699219 35.960938 C 7.96875 35.851562 8.226562 35.714844 8.46875 35.550781 C 8.710938 35.390625 8.9375 35.203125 9.144531 35 C 9.347656 34.792969 9.535156 34.566406 9.695312 34.324219 C 9.859375 34.082031 9.996094 33.824219 10.105469 33.554688 C 10.21875 33.285156 10.300781 33.007812 10.359375 32.722656 C 10.414062 32.4375 10.445312 32.148438 10.445312 31.855469 C 10.445312 31.5625 10.414062 31.273438 10.359375 30.988281 C 10.300781 30.703125 10.21875 30.425781 10.105469 30.15625 C 9.996094 29.886719 9.859375 29.628906 9.695312 29.386719 C 9.535156 29.144531 9.347656 28.917969 9.144531 28.710938 C 8.9375 28.507812 8.710938 28.320312 8.46875 28.160156 C 8.226562 27.996094 7.96875 27.859375 7.699219 27.75 C 7.429688 27.636719 7.152344 27.554688 6.867188 27.496094 C 6.582031 27.441406 6.292969 27.410156 6 27.410156 C 5.707031 27.410156 5.417969 27.441406 5.132812 27.496094 C 4.847656 27.554688 4.570312 27.636719 4.300781 27.75 C 4.03125 27.859375 3.773438 27.996094 3.53125 28.160156 C 3.289062 28.320312 3.0625 28.507812 2.855469 28.710938 C 2.652344 28.917969 2.464844 29.144531 2.304688 29.386719 C 2.140625 29.628906 2.003906 29.886719 1.894531 30.15625 C 1.78125 30.425781 1.699219 30.703125 1.640625 30.988281 C 1.585938 31.273438 1.554688 31.5625 1.554688 31.855469 C 1.554688 32.148438 1.585938 32.4375 1.640625 32.722656 C 1.699219 33.007812 1.78125 33.285156 1.894531 33.554688 C 2.003906 33.824219 2.140625 34.082031 2.304688 34.324219 C 2.464844 34.566406 2.652344 34.792969 2.855469 35 C 3.0625 35.203125 3.289062 35.390625 3.53125 35.550781 C 3.773438 35.714844 4.03125 35.851562 4.300781 35.960938 C 4.570312 36.074219 4.847656 36.15625 5.132812 36.214844 C 5.417969 36.273438 5.707031 36.300781 6 36.300781 Z M 3.871094 30.316406 L 4.460938 29.726562 L 6 31.265625 L 7.539062 29.726562 L 8.128906 30.316406 L 6.589844 31.855469 L 8.128906 33.394531 L 7.539062 33.984375 L 6 32.445312 L 4.460938 33.984375 L 3.871094 33.394531 L 5.410156 31.855469 Z M 3.871094 30.316406 " fill-opacity="1" fill-rule="nonzero"/><path fill="#000000" d="M 18.742188 5.746094 L 17.6875 5.746094 C 17.035156 5.742188 16.386719 5.800781 15.742188 5.925781 C 15.097656 6.050781 14.476562 6.238281 13.867188 6.484375 C 13.261719 6.734375 12.6875 7.039062 12.140625 7.398438 C 11.59375 7.757812 11.085938 8.171875 10.621094 8.632812 C 10.15625 9.09375 9.742188 9.59375 9.375 10.136719 C 9.007812 10.679688 8.699219 11.253906 8.445312 11.855469 C 8.191406 12.460938 8 13.082031 7.867188 13.726562 C 7.738281 14.367188 7.667969 15.015625 7.667969 15.667969 L 7.667969 26.554688 C 8.230469 26.734375 8.753906 26.992188 9.234375 27.335938 C 9.714844 27.683594 10.128906 28.09375 10.480469 28.570312 C 10.828125 29.046875 11.09375 29.5625 11.28125 30.125 C 11.464844 30.6875 11.554688 31.265625 11.554688 31.855469 C 11.554688 32.042969 11.546875 32.226562 11.527344 32.410156 L 20.328125 32.410156 L 20.328125 30.1875 L 25.074219 30.1875 C 25.492188 30.191406 25.894531 30.113281 26.28125 29.953125 C 26.667969 29.796875 27.007812 29.570312 27.304688 29.277344 C 27.601562 28.984375 27.832031 28.644531 27.992188 28.257812 C 28.15625 27.875 28.238281 27.472656 28.238281 27.054688 L 28.238281 24.941406 L 31 23.398438 L 28.765625 19.328125 L 28.765625 15.667969 C 28.761719 15.015625 28.695312 14.367188 28.566406 13.726562 C 28.433594 13.082031 28.242188 12.460938 27.988281 11.855469 C 27.734375 11.253906 27.425781 10.679688 27.058594 10.136719 C 26.691406 9.59375 26.277344 9.09375 25.808594 8.632812 C 25.34375 8.171875 24.839844 7.757812 24.292969 7.398438 C 23.746094 7.039062 23.171875 6.734375 22.5625 6.484375 C 21.957031 6.238281 21.332031 6.050781 20.691406 5.925781 C 20.046875 5.800781 19.398438 5.742188 18.742188 5.746094 Z M 23.003906 18.398438 L 20.019531 19.128906 C 19.257812 19.3125 18.570312 19.652344 17.957031 20.144531 C 16.695312 21.164062 15.691406 22.394531 14.953125 23.835938 L 14.453125 24.808594 C 14.300781 25.097656 14.085938 25.328125 13.808594 25.496094 C 13.527344 25.664062 13.226562 25.746094 12.902344 25.746094 C 12.691406 25.746094 12.488281 25.710938 12.292969 25.640625 C 12.097656 25.566406 11.917969 25.464844 11.761719 25.328125 C 11.601562 25.191406 11.472656 25.03125 11.371094 24.847656 C 11.273438 24.664062 11.207031 24.46875 11.179688 24.261719 L 10.996094 22.824219 C 10.894531 22.0625 10.703125 21.320312 10.414062 20.609375 C 9.847656 19.210938 9.558594 17.761719 9.546875 16.253906 L 9.546875 16.09375 C 9.550781 15.554688 9.613281 15.019531 9.722656 14.488281 C 9.835938 13.960938 10 13.449219 10.210938 12.953125 C 10.425781 12.457031 10.683594 11.984375 10.992188 11.539062 C 11.296875 11.09375 11.644531 10.683594 12.03125 10.304688 C 12.417969 9.925781 12.835938 9.589844 13.289062 9.296875 C 13.742188 9.003906 14.21875 8.753906 14.722656 8.554688 C 15.222656 8.351562 15.742188 8.203125 16.273438 8.105469 C 16.804688 8.007812 17.339844 7.960938 17.878906 7.964844 L 19.570312 7.964844 C 20 7.960938 20.421875 7.996094 20.84375 8.074219 C 21.265625 8.152344 21.675781 8.273438 22.074219 8.429688 C 22.46875 8.585938 22.847656 8.78125 23.210938 9.015625 C 23.570312 9.246094 23.902344 9.511719 24.210938 9.808594 C 24.519531 10.105469 24.796875 10.433594 25.039062 10.785156 C 25.285156 11.136719 25.492188 11.507812 25.664062 11.898438 C 25.835938 12.292969 25.96875 12.699219 26.058594 13.117188 C 26.152344 13.535156 26.203125 13.957031 26.210938 14.386719 C 26.210938 14.851562 26.132812 15.304688 25.976562 15.746094 C 25.820312 16.183594 25.597656 16.585938 25.304688 16.953125 C 25.015625 17.316406 24.671875 17.621094 24.277344 17.871094 C 23.882812 18.117188 23.457031 18.296875 23.003906 18.398438 Z M 23.003906 18.398438 " fill-opacity="1" fill-rule="nonzero"/><path fill="#000000" d="M 33.03125 11.558594 C 33.429688 12.316406 33.765625 13.097656 34.039062 13.910156 C 34.3125 14.71875 34.519531 15.542969 34.664062 16.386719 C 34.804688 17.230469 34.882812 18.078125 34.886719 18.933594 C 34.894531 19.789062 34.835938 20.640625 34.707031 21.484375 C 34.578125 22.328125 34.386719 23.160156 34.125 23.972656 C 33.867188 24.789062 33.542969 25.578125 33.15625 26.339844 C 32.773438 27.101562 32.328125 27.832031 31.828125 28.523438 C 31.324219 29.214844 30.773438 29.863281 30.167969 30.46875 C 29.5625 31.074219 28.914062 31.625 28.222656 32.128906 C 27.53125 32.628906 26.800781 33.070312 26.039062 33.457031 C 25.277344 33.84375 24.488281 34.164062 23.671875 34.425781 C 22.859375 34.683594 22.03125 34.878906 21.183594 35.007812 C 20.339844 35.136719 19.488281 35.195312 18.632812 35.1875 C 17.78125 35.179688 16.929688 35.105469 16.085938 34.964844 C 15.246094 34.820312 14.417969 34.613281 13.609375 34.339844 C 12.796875 34.066406 12.015625 33.730469 11.257812 33.332031 L 10.738281 34.3125 C 11.546875 34.738281 12.386719 35.097656 13.25 35.390625 C 14.117188 35.683594 15 35.90625 15.902344 36.058594 C 16.800781 36.210938 17.710938 36.292969 18.625 36.300781 C 19.539062 36.308594 20.445312 36.242188 21.351562 36.105469 C 22.253906 35.96875 23.140625 35.761719 24.011719 35.484375 C 24.882812 35.207031 25.726562 34.859375 26.539062 34.449219 C 27.355469 34.039062 28.132812 33.5625 28.875 33.027344 C 29.613281 32.492188 30.308594 31.902344 30.953125 31.253906 C 31.601562 30.609375 32.191406 29.914062 32.726562 29.175781 C 33.261719 28.433594 33.738281 27.65625 34.148438 26.839844 C 34.5625 26.023438 34.90625 25.183594 35.183594 24.3125 C 35.460938 23.441406 35.667969 22.554688 35.804688 21.648438 C 35.941406 20.746094 36.007812 19.835938 36 18.925781 C 35.992188 18.011719 35.910156 17.101562 35.757812 16.203125 C 35.605469 15.300781 35.382812 14.417969 35.089844 13.550781 C 34.796875 12.6875 34.4375 11.847656 34.011719 11.039062 Z M 33.03125 11.558594 " fill-opacity="1" fill-rule="nonzero"/><path fill="#000000" d="M 4.523438 26.597656 C 4.125 25.839844 3.789062 25.054688 3.515625 24.246094 C 3.242188 23.4375 3.035156 22.609375 2.890625 21.769531 C 2.75 20.925781 2.675781 20.074219 2.667969 19.222656 C 2.660156 18.367188 2.71875 17.515625 2.847656 16.671875 C 2.976562 15.824219 3.171875 14.996094 3.429688 14.183594 C 3.691406 13.367188 4.011719 12.578125 4.398438 11.816406 C 4.785156 11.050781 5.226562 10.324219 5.726562 9.632812 C 6.230469 8.941406 6.78125 8.292969 7.386719 7.6875 C 7.992188 7.082031 8.640625 6.53125 9.332031 6.027344 C 10.023438 5.527344 10.753906 5.082031 11.515625 4.699219 C 12.277344 4.3125 13.066406 3.988281 13.882812 3.730469 C 14.695312 3.46875 15.527344 3.277344 16.371094 3.148438 C 17.214844 3.019531 18.066406 2.960938 18.921875 2.96875 C 19.777344 2.972656 20.625 3.050781 21.46875 3.191406 C 22.3125 3.335938 23.136719 3.542969 23.945312 3.816406 C 24.757812 4.089844 25.539062 4.425781 26.296875 4.824219 L 26.816406 3.84375 C 26.007812 3.417969 25.167969 3.058594 24.304688 2.765625 C 23.4375 2.472656 22.554688 2.25 21.652344 2.097656 C 20.753906 1.945312 19.84375 1.863281 18.929688 1.855469 C 18.019531 1.847656 17.109375 1.914062 16.207031 2.050781 C 15.300781 2.1875 14.414062 2.394531 13.542969 2.671875 C 12.671875 2.949219 11.832031 3.292969 11.015625 3.707031 C 10.199219 4.117188 9.421875 4.59375 8.679688 5.128906 C 7.941406 5.664062 7.246094 6.253906 6.601562 6.902344 C 5.957031 7.546875 5.363281 8.242188 4.828125 8.980469 C 4.292969 9.722656 3.820312 10.5 3.40625 11.316406 C 2.996094 12.128906 2.648438 12.972656 2.371094 13.84375 C 2.09375 14.714844 1.886719 15.601562 1.75 16.503906 C 1.613281 17.410156 1.546875 18.316406 1.554688 19.230469 C 1.5625 20.144531 1.644531 21.054688 1.796875 21.953125 C 1.949219 22.855469 2.171875 23.738281 2.464844 24.605469 C 2.757812 25.46875 3.117188 26.308594 3.542969 27.113281 Z M 4.523438 26.597656 " fill-opacity="1" fill-rule="nonzero"/></svg>